<?xml version="1.0" standalone="yes"?>
<svg xmlns="http://www.w3.org/2000/svg" width="1850" height="400">
<path style="fill:#737373; stroke:none;" d="M0 0L0 22L1 22C3.96302 11.7382 11.7527 3.95773 22 1L0 0z"/>
<path style="fill:#ffffff; stroke:none;" d="M22 0.529327C-10.6479 8.02374 0 60.4745 0 85L0 321C0 344.91 -9.18276 387.715 19 398.532C29.8787 402.707 45.4625 400 57 400L140 400L423 400L1389 400L1708 400L1795 400C1807.55 400 1823.63 402.789 1835 396.676C1858.94 383.811 1850 340.714 1850 318L1850 84C1850 59.5929 1860.51 7.99277 1828 0.529327C1807.38 -4.20316 1781.17 0 1760 0L1619 0L1169 0L385 0L138 0L60 0C48.0286 0 33.6834 -2.15265 22 0.529327z"/>
<path style="fill:#737373; stroke:none;" d="M1828 0L1828 1C1838.26 3.96301 1846.04 11.7526 1849 22L1850 22L1850 0L1828 0z"/>
<path style="fill:#75af3b; stroke:none;" d="M190 110L191 111L190 110z"/>
<path style="fill:#e5473a; stroke:none;" d="M120 161L150 183C160.801 145.509 205.82 136.652 234 159L235 159L260 134C233.721 98.3209 171.881 106.076 142 130.921C133.231 138.212 122.108 149.318 120 161z"/>
<path style="fill:#75af3b; stroke:none;" d="M183 111L184 112L183 111M221 112L222 113L221 112M228 114L229 115L228 114M254 128L255 129L254 128M140 132L141 133L140 132M132 140L133 141L132 140M191 146L192 147L191 146M213 147L214 148L213 147M125 149L126 150L125 149M178 150L179 151L178 150z"/>
<path style="fill:#737373; stroke:none;" d="M1183 150L1183 255L1199 255L1199 220C1199 214.793 1197.85 207.935 1199.74 203C1202.9 194.744 1214.52 189.975 1221.96 195.514C1228.08 200.077 1228 207.11 1228 214L1228 255L1244 255C1244 235.938 1248.18 211.111 1241.61 193C1234.82 174.267 1210.74 178.295 1199 189L1199 150L1183 150z"/>
<path style="fill:#75af3b; stroke:none;" d="M1199 150L1199 189L1200 189C1200 177.828 1203.31 160.274 1199 150z"/>
<path style="fill:#737373; stroke:none;" d="M1638 150L1638 255L1654 255L1654 150L1638 150z"/>
<path style="fill:#75af3b; stroke:none;" d="M176 151L177 152L176 151M225 152L226 153L225 152M614 153L615 154L614 153z"/>
<path style="fill:#737373; stroke:none;" d="M615.018 153.743C603.53 158.244 611.803 173.96 622.895 169.258C633.175 164.899 624.935 149.858 615.018 153.743z"/>
<path style="fill:#75af3b; stroke:none;" d="M847 153L848 154L847 153z"/>
<path style="fill:#737373; stroke:none;" d="M848.015 153.576C836.819 156.735 842.875 172.534 853.985 169.682C865.091 166.831 859.019 150.472 848.015 153.576z"/>
<path style="fill:#75af3b; stroke:none;" d="M854 153L855 154L854 153M1104 153L1105 154L1104 153z"/>
<path style="fill:#737373; stroke:none;" d="M1105.02 153.576C1093.82 156.735 1099.87 172.534 1110.98 169.682C1122.09 166.831 1116.02 150.472 1105.02 153.576z"/>
<path style="fill:#75af3b; stroke:none;" d="M1111 153L1112 154L1111 153M551 154L551 155L554 155L551 154z"/>
<path style="fill:#737373; stroke:none;" d="M537 225L520 225C521.842 248.144 542.252 256.495 563 255.985C575.346 255.682 589.479 249.912 593.211 237C599.449 215.414 580.665 203.736 563 198.283C555.277 195.899 542.56 192.264 540.666 183C539.105 175.366 547.278 169.035 554 168.185C565.276 166.759 575.906 171.857 577 184L594 184C593.296 150.963 535.3 141.453 524.789 173C517.13 195.984 539.163 206.365 557 212.333C564.306 214.778 575.279 218.156 576.768 227C578.398 236.683 568.432 242.646 560 242.956C548.21 243.389 538.781 236.881 537 225z"/>
<path style="fill:#75af3b; stroke:none;" d="M563 154L563 155L566 155L563 154M612 154L613 155L612 154M856 154L857 155L856 154M1113 154L1114 155L1113 154M1330 154L1330 155L1333 155L1330 154z"/>
<path style="fill:#737373; stroke:none;" d="M1376 204L1338 204L1338 217L1359 217C1359 222.509 1360.85 232.164 1357.4 236.786C1354.83 240.223 1349.98 241.398 1346 242.192C1328.3 245.726 1315.95 231.612 1314.17 215C1312.87 202.813 1312.71 185.792 1321.21 176.015C1333.94 161.38 1354.73 168.032 1359 186L1376 186C1373.88 177.805 1372.14 170.33 1365.91 164.093C1352.12 150.304 1323.91 150.709 1310.04 164.093C1296.83 176.843 1295.5 197.741 1297.17 215C1298.24 226.097 1301.73 237.782 1310.17 245.535C1325.18 259.313 1359.37 261.42 1373.57 244.7C1380.22 236.866 1376 213.95 1376 204z"/>
<path style="fill:#75af3b; stroke:none;" d="M1343 154L1343 155L1346 155L1343 154M546 155L547 156L546 155M569 155L570 156L569 155M611 155L612 156L611 155M625 155L626 156L625 155M1325.67 155.333L1326.33 155.667L1325.67 155.333M1349.67 155.333L1350.33 155.667L1349.67 155.333M168 156L169 157L168 156M542 156L543 157L542 156M573 156L574 157L573 156M1322 156L1323 157L1322 156M1353 156L1354 157L1353 156M232 157L233 158L232 157M540 157L541 158L540 157M575 157L576 158L575 157M842 157L843 158L842 157M627.333 158.667L627.667 159.333L627.333 158.667M536 159L537 160L536 159M579 159L580 160L579 159M609 159L610 160L609 159M581 160L582 161L581 160M1314 160L1315 161L1314 160M1361 160L1362 161L1361 160M119 161C107.327 189.459 107.127 221.021 123.465 248C150.78 293.107 219.474 305.076 259 269L259 268C251.888 261.846 240.215 249.283 231 247.067C224.277 245.451 212.615 253.377 205 253.91C178.594 255.761 151.402 235.903 147.3 209C145.875 199.649 147.812 191.2 149 182L119 161M533 161L534 162L533 161M841 161L842 162L841 161M1364 162L1365 163L1364 162M609.333 163.667L609.667 164.333L609.333 163.667z"/>
<path style="fill:#737373; stroke:none;" d="M1140 163L1140 181L1128 181L1128 193L1140 193L1140 230C1140 236.314 1139.42 243.384 1143.01 248.957C1150.5 260.589 1174.17 259.478 1169 242C1148.99 246.596 1156 205.284 1156 193L1169 193L1169 181L1156 181L1156 163L1140 163z"/>
<path style="fill:#75af3b; stroke:none;" d="M1365 163L1366 164L1365 163M627 164L628 165L627 164M1366 164L1367 165L1366 164M859 165L860 166L859 165M1116 165L1117 166L1116 165M528 166L529 167L528 166M626 166L627 167L626 166M527 167L528 168L527 167M843 167L844 168L843 167M858 167L859 168L858 167M1100 167L1101 168L1100 167M1115 167L1116 168L1115 167M551.667 168.333L552.333 168.667L551.667 168.333M564 168L565 169L564 168M589 168L590 169L589 168M844 168L845 169L844 168M857 168L858 169L857 168M1101 168L1102 169L1101 168M1114 168L1115 169L1114 168M1332 168L1333 169L1332 168M1343.67 168.333L1344.33 168.667L1343.67 168.333M1369 168L1370 169L1369 168M548 169L549 170L548 169M613 169L614 170L613 169M623 169L624 170L623 169M1305 169L1306 170L1305 169M1329 169L1330 170L1329 169M1347 169L1348 170L1347 169M546 170L547 171L546 170M616 170L616 171L621 171L616 170M849 170L849 171L853 171L849 170M1106 170L1106 171L1110 171L1106 170M1349 170L1350 171L1349 170M1325 171L1326 172L1325 171M1371 171L1372 172L1371 171M572 172L573 173L572 172M1303 172L1304 173L1303 172M1352 172L1353 173L1352 172M524 173L525 174L524 173M573 173L574 174L573 173M1353 173L1354 174L1353 173M1372 173L1373 174L1372 173M592 174L593 175L592 174M1302 174L1303 175L1302 174M575 176L576 177L575 176M1301 176L1302 177L1301 176M523.333 177.667L523.667 178.333L523.333 177.667M593 177L594 178L593 177M1319 177L1320 178L1319 177M540.333 179.667L540.667 180.333L540.333 179.667M576 179L577 180L576 179M1374 179L1375 180L1374 179M150 180L151 181L150 180M665.667 180.333L666.333 180.667L665.667 180.333z"/>
<path style="fill:#737373; stroke:none;" d="M692 249C691.965 261.81 685.322 272.581 671 270.815C664.846 270.056 650.179 257.485 648.907 270.999C648.344 276.968 658.532 280.849 663 282.226C676.938 286.523 694.453 283.461 703.2 270.999C709.331 262.264 708 251.086 708 241L708 181L693 181L693 188C688.993 184.831 685.074 181.853 680 180.681C632.9 169.796 629.463 260.995 677 255.826C682.944 255.18 687.144 252.168 692 249z"/>
<path style="fill:#75af3b; stroke:none;" d="M679 180L680 181L679 180M756.667 180.333L757.333 180.667L756.667 180.333z"/>
<path style="fill:#737373; stroke:none;" d="M742 189L742 181L726 181L726 255L743 255C743 239.503 739.043 217.816 743.514 203.001C746.263 193.893 759.681 189.997 766.775 196.419C771.703 200.879 771 207.986 771 214L771 255L787 255C787 236.317 791.134 211.903 785.556 194C781.493 180.957 766.873 177.747 755 181.171C749.911 182.638 746.273 186.082 742 189z"/>
<path style="fill:#75af3b; stroke:none;" d="M771 180L772 181L771 180M908.667 180.333L909.333 180.667L908.667 180.333z"/>
<path style="fill:#737373; stroke:none;" d="M894 189L894 181L878 181L878 255L895 255L895 219C895 213.809 893.839 206.918 895.742 202.004C899.021 193.537 912.033 190.316 918.775 196.419C923.703 200.879 923 207.986 923 214L923 255L939 255C939 236.419 942.831 212.924 937.699 195C933.822 181.458 919.446 177.583 907 181.171C901.893 182.643 898.249 186.028 894 189z"/>
<path style="fill:#75af3b; stroke:none;" d="M922.667 180.333L923.333 180.667L922.667 180.333M1213 180L1214 181L1213 180M1227 180L1228 181L1227 180M1357 180L1358 181L1357 180M1417.67 180.333L1418.33 180.667L1417.67 180.333z"/>
<path style="fill:#737373; stroke:none;" d="M1419 180.44C1390.51 185.027 1382.97 226.086 1400.47 245.907C1408.23 254.697 1420.78 257.317 1432 255.7C1476.11 249.34 1465.69 172.922 1419 180.44z"/>
<path style="fill:#75af3b; stroke:none;" d="M1433 180L1434 181L1433 180M1498.67 180.333L1499.33 180.667L1498.67 180.333z"/>
<path style="fill:#737373; stroke:none;" d="M1500 180.44C1471.34 185.045 1463.38 225.753 1481.33 245.91C1489.22 254.772 1501.62 257.341 1513 255.7C1556.88 249.375 1546.4 172.984 1500 180.44z"/>
<path style="fill:#75af3b; stroke:none;" d="M1514 180L1515 181L1514 180M1575.67 180.333L1576.33 180.667L1575.67 180.333z"/>
<path style="fill:#737373; stroke:none;" d="M1602 249C1601.96 261.81 1595.32 272.581 1581 270.815C1574.85 270.056 1560.18 257.485 1558.91 270.999C1558.34 276.968 1568.53 280.849 1573 282.226C1586.94 286.523 1604.45 283.461 1613.2 270.999C1619.33 262.264 1618 251.086 1618 241L1618 181L1603 181L1603 188C1598.99 184.831 1595.07 181.853 1590 180.681C1542.9 169.796 1539.46 260.995 1587 255.826C1592.94 255.18 1597.14 252.168 1602 249z"/>
<path style="fill:#75af3b; stroke:none;" d="M1589 180L1590 181L1589 180M1696.67 180.333L1697.33 180.667L1696.67 180.333z"/>
<path style="fill:#737373; stroke:none;" d="M1725 234C1711.09 249.787 1691.11 242.665 1687 223L1736 223C1735.94 215.593 1735.57 207.063 1733.25 200C1726.64 179.835 1700.33 173.646 1684.01 186.529C1664.01 202.326 1666.02 242.218 1690 253.096C1699.15 257.247 1711.69 257.261 1721 253.522C1732.53 248.893 1735.74 241.573 1725 234z"/>
<path style="fill:#75af3b; stroke:none;" d="M1711.67 180.333L1712.33 180.667L1711.67 180.333z"/>
<path style="fill:#737373; stroke:none;" d="M610 181L610 255L627 255L627 181L610 181z"/>
<path style="fill:#75af3b; stroke:none;" d="M662 181L663 182L662 181M753 181L754 182L753 181M774 181L775 182L774 181z"/>
<path style="fill:#737373; stroke:none;" d="M843 181L843 255L859 255L859 181L843 181z"/>
<path style="fill:#75af3b; stroke:none;" d="M905 181L906 182L905 181z"/>
<path style="fill:#737373; stroke:none;" d="M987 181C994.497 204.444 1003.71 230.614 1007 255L1020.3 253.972L1025.33 241L1037 205C1040.43 217.086 1044.67 228.93 1048.14 241C1049.23 244.789 1050.3 252.56 1054.28 254.397C1065.31 259.496 1067.8 248.906 1069.88 241C1075.16 221.04 1081.83 201.222 1086 181L1070 181L1059 232L1058 232C1055.4 219.452 1050.68 207.306 1047.14 195C1046.12 191.452 1045.2 183.413 1041.57 181.603C1038.58 180.112 1032.31 180.461 1030.28 183.318C1027.23 187.609 1026.31 194.974 1024.86 200C1021.93 210.175 1017.55 220.523 1016 231L1006.87 196L1002.27 182.028L987 181z"/>
<path style="fill:#75af3b; stroke:none;" d="M1003.33 181.667L1003.67 182.333L1003.33 181.667M1030 181L1031 182L1030 181z"/>
<path style="fill:#737373; stroke:none;" d="M1100 181L1100 255L1116 255L1116 181L1100 181z"/>
<path style="fill:#75af3b; stroke:none;" d="M1127 181L1127 193L1128 193L1127 181M1230 181L1231 182L1230 181M1317 181L1318 182L1317 181M1437 181L1438 182L1437 181M1494 181L1495 182L1494 181M1572 181L1573 182L1572 181M1693 181L1694 182L1693 181M1715 181L1716 182L1715 181M540.333 182.667L540.667 183.333L540.333 182.667M776 182L777 183L776 182M928 182L929 183L928 182M987 182L988 183L987 182M1043 182L1044 183L1043 182M1411 182L1412 183L1411 182M1492 182L1493 183L1492 182M1520 182L1521 183L1520 182M1690 182L1691 183L1690 182M1718 182L1719 183L1718 182M658 183L659 184L658 183M749 183L750 184L749 183M901 183L902 184L901 183M1069.33 183.667L1069.67 184.333L1069.33 183.667M1085 183L1086 184L1085 183M1234 183L1235 184L1234 183M1358 183L1359 184L1358 183M1375.33 183.667L1375.67 184.333L1375.33 183.667M1409 183L1410 184L1409 183M1568 183L1569 184L1568 183M1688 183L1689 184L1688 183M1720 183L1721 184L1720 183z"/>
<path style="fill:#5588dd; stroke:none;" d="M200 184L200 218L248 218C246.843 231.168 236.345 236.443 231 247C237.306 251.533 251.143 267.189 259 266.833C265.411 266.541 271.536 254.824 274.395 250C286.497 229.579 286.805 206.872 285 184L200 184z"/>
<path style="fill:#75af3b; stroke:none;" d="M523 184L523 187L524 187L523 184M577 184L577 185L594 185L577 184M688 184L689 185L688 184M779 184L780 185L779 184M931 184L932 185L931 184M1029 184L1030 185L1029 184M1204 184L1205 185L1204 184M1407 184L1408 185L1407 184M1488 184L1489 185L1488 184M1524 184L1525 185L1524 184M1598 184L1599 185L1598 184M655 185L656 186L655 185M689 185L690 186L689 185M746 185L747 186L746 185M780 185L781 186L780 185M898 185L899 186L898 185M932 185L933 186L932 185M988 185L989 186L988 185M1004.33 185.667L1004.67 186.333L1004.33 185.667M1298 185L1299 186L1298 185M1445 185L1446 186L1445 185M1565 185L1566 186L1565 185M1599 185L1600 186L1599 185M1685 185L1686 186L1685 185M1723 185L1724 186L1723 185M541 186L542 187L541 186M654 186L655 187L654 186M745 186L746 187L745 186M781 186L782 187L781 186M897 186L898 187L897 186M933 186L934 187L933 186M1044 186L1045 187L1044 186M1404 186L1405 187L1404 186M1485 186L1486 187L1485 186M1527 186L1528 187L1527 186M1564 186L1565 187L1564 186M1724 186L1725 187L1724 186M653 187L654 188L653 187M744 187L745 188L744 187M782 187L783 188L782 187M1028 187L1029 188L1028 187M1084 187L1085 188L1084 187M1315 187L1316 188L1315 187M1403 187L1404 188L1403 187M1563 187L1564 188L1563 187M1725 187L1726 188L1725 187M285 188L286 189L285 188M652 188L653 189L652 188M743 188L744 189L743 188M895 188L896 189L895 188M1068 188L1069 189L1068 188M1239 188L1240 189L1239 188M1402 188L1403 189L1402 188M1562 188L1563 189L1562 188M1726 188L1727 189L1726 188M524 189L525 190L524 189M651 189L652 190L651 189M935 189L936 190L935 189M989 189L990 190L989 189M1045 189L1046 190L1045 189M1401 189L1402 190L1401 189M1561 189L1562 190L1561 189M1727 189L1728 190L1727 189M1005 190L1006 191L1005 190M1297.33 190.667L1297.67 191.333L1297.33 190.667M1400 190L1401 191L1400 190M1728 190L1729 191L1728 190M546 191L547 192L546 191M936 191L937 192L936 191M1027 191L1028 192L1027 191M1083 191L1084 192L1083 191M1399 191L1400 192L1399 191M1480 191L1481 192L1480 191M1532 191L1533 192L1532 191M649 192L650 193L649 192M1046 192L1047 193L1046 192M1067 192L1068 193L1067 192M1241 192L1242 193L1241 192M1314 192L1314 195L1315 195L1314 192M1452 192L1453 193L1452 192M1479 192L1480 193L1479 192M1533 192L1534 193L1533 192M1559 192L1560 193L1559 192M1678 192L1679 193L1678 192M673.667 193.333L674.333 193.667L673.667 193.333z"/>
<path style="fill:#ffffff; stroke:none;" d="M675 193.507C652.497 196.767 654.329 245.756 679 242.684C699.35 240.151 698.735 190.068 675 193.507z"/>
<path style="fill:#75af3b; stroke:none;" d="M679.667 193.333L680.333 193.667L679.667 193.333M754 193L755 194L754 193M760.667 193.333L761.333 193.667L760.667 193.333M785 193L786 194L785 193M906 193L907 194L906 193M912.667 193.333L913.333 193.667L912.667 193.333M937 193L938 194L937 193M990 193L991 194L990 193M1139 193L1140 194L1139 193M1156 193L1157 194L1156 193M1210.67 193.333L1211.33 193.667L1210.67 193.333M1217.67 193.333L1218.33 193.667L1217.67 193.333M1421 193L1422 194L1421 193z"/>
<path style="fill:#ffffff; stroke:none;" d="M1422 193.533C1399.5 198.965 1403.62 248.87 1430 242.467C1451.36 237.281 1447.37 187.409 1422 193.533z"/>
<path style="fill:#75af3b; stroke:none;" d="M1430 193L1431 194L1430 193M1502 193L1503 194L1502 193z"/>
<path style="fill:#ffffff; stroke:none;" d="M1503 193.53C1480.37 198.652 1484.54 249.377 1511 242.442C1532.22 236.88 1528.24 187.817 1503 193.53z"/>
<path style="fill:#75af3b; stroke:none;" d="M1510 193L1511 194L1510 193M1583.67 193.333L1584.33 193.667L1583.67 193.333z"/>
<path style="fill:#ffffff; stroke:none;" d="M1585 193.507C1562.5 196.767 1564.33 245.756 1589 242.684C1609.35 240.151 1608.73 190.068 1585 193.507z"/>
<path style="fill:#75af3b; stroke:none;" d="M1589.67 193.333L1590.33 193.667L1589.67 193.333M1677 193L1678 194L1677 193M1699 193L1700 194L1699 193z"/>
<path style="fill:#ffffff; stroke:none;" d="M1688 211L1719 211C1718.5 187.559 1689.97 188.536 1688 211z"/>
<path style="fill:#75af3b; stroke:none;" d="M1708 193L1709 194L1708 193M1730 193L1731 194L1730 193M670 194L671 195L670 194M751 194L752 195L751 194M1006 194L1007 195L1006 194M1026 194L1027 195L1026 194M1082 194L1083 195L1082 194M1207 194L1208 195L1207 194M1221 194L1222 195L1221 194M1242.33 194.667L1242.67 195.333L1242.33 194.667M1397 194L1398 195L1397 194M1418 194L1419 195L1418 194M1499 194L1500 195L1499 194M1513 194L1514 195L1513 194M1580 194L1581 195L1580 194M1711 194L1712 195L1711 194M527 195L528 196L527 195M554 195L555 196L554 195M668 195L669 196L668 195M766 195L767 196L766 195M918 195L919 196L918 195M1205 195L1206 196L1205 195M1434 195L1435 196L1434 195M1454 195L1455 196L1454 195M1497 195L1498 196L1497 195M1515 195L1516 196L1515 195M1535 195L1536 196L1535 195M1578 195L1579 196L1578 195M1676 195L1677 196L1676 195M1695 195L1696 196L1695 195M1731 195L1732 196L1731 195M557 196L558 197L557 196M687 196L688 197L687 196M747 196L748 197L747 196M767 196L768 197L767 196M899 196L900 197L899 196M919 196L920 197L919 196M991 196L992 197L991 196M1047 196L1048 197L1047 196M1066.33 196.667L1066.67 197.333L1066.33 196.667M1396 196L1397 197L1396 196M1415 196L1416 197L1415 196M1516 196L1517 197L1516 196M1597 196L1598 197L1597 196M560 197L561 198L560 197M688 197L689 198L688 197M746 197L747 198L746 197M768 197L769 198L768 197M786 197L787 198L786 197M898 197L899 198L898 197M920 197L921 198L920 197M938.333 197.667L938.667 198.333L938.333 197.667M1025 197L1026 198L1025 197M1414 197L1415 198L1414 197M1536 197L1537 198L1536 197M1598 197L1599 198L1598 197M1732 197L1733 198L1732 197M563 198L564 199L563 198M646 198L647 199L646 198M689 198L690 199L689 198M745 198L746 199L745 198M897 198L898 199L897 198M1007 198L1008 199L1007 198M1081 198L1082 199L1081 198M1413 198L1414 199L1413 198M1556 198L1557 199L1556 198M1599 198L1600 199L1599 198M1692 198L1693 199L1692 198M769 199L770 200L769 199M896 199L897 200L896 199M921 199L922 200L921 199M1048 199L1049 200L1048 199M1243.33 199.667L1243.67 200.333L1243.33 199.667M1412 199L1413 200L1412 199M1438 199L1439 200L1438 199M1493 199L1494 200L1493 199M1519 199L1520 200L1519 199M1537 199L1538 200L1537 199M1691 199L1692 200L1691 199M1716 199L1717 200L1716 199M569 200L570 201L569 200M663 200L664 201L663 200M992 200L993 201L992 200M1200 200L1201 201L1200 200M1226 200L1227 201L1226 200M1394 200L1395 201L1394 200M1439 200L1440 201L1439 200M1573 200L1574 201L1573 200M1733 200L1734 201L1733 200M691 201L692 202L691 201M1024 201L1025 202L1024 201M1065 201L1066 202L1065 201M1457 201L1458 202L1457 201M1601 201L1602 202L1601 201M1673 201L1674 202L1673 201M1690 201L1691 202L1690 201M1717 201L1718 202L1717 201M534 202L535 203L534 202M574 202L575 203L574 202M662 202L663 203L662 202M770 202L771 203L770 202M922.333 202.667L922.667 203.333L922.333 202.667M1008.33 202.667L1008.67 203.333L1008.33 202.667M1049 202L1050 203L1049 202M1080 202L1081 203L1080 202M1199 202L1199 255L1200 255L1200 219L1199 202M1474 202L1475 203L1474 202M1491 202L1492 203L1491 202M1538 202L1539 203L1538 202M1572 202L1573 203L1572 202M576 203L577 204L576 203M1227 203L1227 255L1228 255L1228 220L1227 203M1393 203L1394 204L1393 203M1689 203L1690 204L1689 203M537 204L538 205L537 204M578 204L579 205L578 204M644 204L645 205L644 204M787 204L787 255L788 255C788 240.689 792.508 217.127 787 204M993 204L994 205L993 204M1023 204L1024 205L1023 204M1441 204L1442 205L1441 204M1458.33 204.667L1458.67 205.333L1458.33 204.667M1554 204L1555 205L1554 204M1672 204L1673 205L1672 204M1718 204L1719 205L1718 204M1734 204L1735 205L1734 204M539 205L540 206L539 205M580 205L581 206L580 205M1064 205L1065 206L1064 205M1079 205L1080 206L1079 205M1409 205L1410 206L1409 205M1473 205L1474 206L1473 205M1490 205L1491 206L1490 205M1522 205L1523 206L1522 205M1539.33 205.667L1539.67 206.333L1539.33 205.667M541 206L542 207L541 206M1037 206L1038 207L1037 206M1050 206L1051 207L1050 206M1392 206L1393 207L1392 206M1688 206L1689 207L1688 206M543 207L544 208L543 207M583 207L584 208L583 207M994 207L995 208L994 207M1009 207L1010 208L1009 207M1022 207L1023 208L1022 207M1035 207L1036 208L1035 207M1442.33 207.667L1442.67 208.333L1442.33 207.667M584 208L585 209L584 208M660.333 208.667L660.667 209.333L660.333 208.667M1489.33 208.667L1489.67 209.333L1489.33 208.667M1523 208L1524 209L1523 208M1570.33 208.667L1570.67 209.333L1570.33 208.667M1671 208L1672 209L1671 208M548 209L549 210L548 209M643 209L643 212L644 212L643 209M1051 209L1052 210L1051 209M1078 209L1079 210L1078 209M1408.33 209.667L1408.67 210.333L1408.33 209.667M1459 209L1459 212L1460 212L1459 209M1553 209L1553 212L1554 212L1553 209M551 210L552 211L551 210M1038 210L1039 211L1038 210M1063 210L1064 211L1063 210M1472 210L1472 213L1473 213L1472 210M1540 210L1540 214L1541 214L1540 210M1735 210L1735 216L1736 216L1735 210M554 211L555 212L554 211M995 211L996 212L995 211M1010 211L1011 212L1010 211M1021 211L1022 212L1021 211M557 212L558 213L557 212M1052 212L1053 213L1052 212M1391 212L1391 216L1392 216L1391 212M560 213L561 214L560 213M589 213L590 214L589 213M1039 213L1040 214L1039 213M1077 213L1078 214L1077 213M1443 213L1443 222L1444 222L1443 213M563 214L564 215L563 214M996.333 214.667L996.667 215.333L996.333 214.667M1020 214L1021 215L1020 214M1033 214L1034 215L1033 214M1062 214L1063 215L1062 214M1011 215L1012 216L1011 215M1053 215L1054 216L1053 215M1314 215L1314 218L1315 218L1314 215M285 216L286 217L285 216M591 216L592 217L591 216M1040 216L1041 217L1040 216M1076 216L1077 217L1076 216M1524 216L1524 219L1525 219L1524 216M659 217L659 221L660 221L659 217M1019 217L1020 218L1019 217M1032 217L1033 218L1032 217M1297 217L1297 220L1298 220L1297 217M1569 217L1569 221L1570 221L1569 217M571 218L572 219L571 218M592 218L593 219L592 218M997 218L998 219L997 218M1061 218L1062 219L1061 218M1012.33 219.667L1012.67 220.333L1012.33 219.667M1041 219L1042 220L1041 219M1054 219L1055 220L1054 219M1391 219L1391 224L1392 224L1391 219M1031 220L1032 221L1031 220M1075 220L1076 221L1075 220M593.333 221.667L593.667 222.333L593.333 221.667M1018 221L1019 222L1018 221M1315 221L1316 222L1315 221M247 222L248 223L247 222M284 222L285 223L284 222M575 222L576 223L575 222M998 222L999 223L998 222M1042 222L1043 223L1042 222M1055 222L1056 223L1055 222M643 223L643 226L644 226L643 223M1013.33 223.667L1013.67 224.333L1013.33 223.667M1060 223L1061 224L1060 223M1298.33 223.667L1298.67 224.333L1298.33 223.667M1472 223L1472 226L1473 226L1472 223M1540 223L1540 226L1541 226L1540 223M1553 223L1553 226L1554 226L1553 223M1687 223L1687 226L1688 226L1687 223M576 224L577 225L576 224M1017 224L1018 225L1017 224M1074 224L1075 225L1074 224M246 225L247 226L246 225M999.333 225.667L999.667 226.333L999.333 225.667M1056 225L1057 226L1056 225M1316 225L1317 226L1316 225M1459.33 225.667L1459.67 226.333L1459.33 225.667M1043 226L1044 227L1043 226M1408 226L1409 227L1408 226M1523.33 226.667L1523.67 227.333L1523.33 226.667M537.333 227.667L537.667 228.333L537.333 227.667M660.333 227.667L660.667 228.333L660.333 227.667M1016 227L1017 228L1016 227M1029 227L1030 228L1029 227M1059 227L1060 228L1059 227M1073 227L1074 228L1073 227M1299 227L1300 228L1299 227M1317 227L1318 228L1317 227M1442.33 227.667L1442.67 228.333L1442.33 227.667M1489 227L1490 228L1489 227M1570.33 227.667L1570.67 228.333L1570.33 227.667M1014 228L1015 229L1014 228M1671.33 228.667L1671.67 229.333L1671.33 228.667M520.333 229.667L520.667 230.333L520.333 229.667M1000 229L1001 230L1000 229M1044 229L1045 230L1044 229M1057 229L1058 230L1057 229M1392 229L1393 230L1392 229M1688 229L1689 230L1688 229M282 230L283 231L282 230M644.333 230.667L644.667 231.333L644.333 230.667M1015 230L1016 231L1015 230M1028 230L1029 231L1028 230M1300 230L1301 231L1300 230M1409 230L1410 231L1409 230M1458 230L1459 231L1458 230M1473 230L1474 231L1473 230M1539 230L1540 231L1539 230M1554.33 230.667L1554.67 231.333L1554.33 230.667M538 231L539 232L538 231M661 231L662 232L661 231M1058 231L1059 232L1058 231M1072 231L1073 232L1072 231M1319 231L1320 232L1319 231M1441 231L1442 232L1441 231M1571 231L1572 232L1571 231M1045 232L1046 233L1045 232M242 233L243 234L242 233M576 233L577 234L576 233M662 233L663 234L662 233M1001 233L1002 234L1001 233M1027 233L1028 234L1027 233M1393 233L1394 234L1393 233M1474 233L1475 234L1474 233M1491 233L1492 234L1491 233M1521 233L1522 234L1521 233M1538 233L1539 234L1538 233M1572 233L1573 234L1572 233M1672 233L1673 234L1672 233M521 234L522 235L521 234M645 234L646 235L645 234M691 234L692 235L691 234M1321 234L1322 235L1321 234M1555 234L1556 235L1555 234M1601 234L1602 235L1601 234M540 235L541 236L540 235M663 235L664 236L663 235M1046 235L1047 236L1046 235M1071 235L1072 236L1071 235M1322 235L1323 236L1322 235M1439 235L1440 236L1439 235M1492 235L1493 236L1492 235M1520 235L1521 236L1520 235M1573 235L1574 236L1573 235M1691 235L1692 236L1691 235M280 236L281 237L280 236M593 236L594 237L593 236M1002.33 236.667L1002.67 237.333L1002.33 236.667M1323 236L1324 237L1323 236M1358 236L1359 237L1358 236M1412 236L1413 237L1412 236M1456 236L1457 237L1456 236M1475 236L1476 237L1475 236M1723 236L1724 237L1723 236M239 237L240 238L239 237M542 237L543 238L542 237M646 237L647 238L646 237M689 237L690 238L689 237M1156 237L1157 238L1156 237M1324 237L1325 238L1324 237M1556 237L1557 238L1556 237M1599 237L1600 238L1599 237M1729 237L1730 238L1729 237M543 238L544 239L543 238M688 238L689 239L688 238M1047 238L1048 239L1047 238M1070 238L1071 239L1070 238M1304 238L1305 239L1304 238M1356 238L1357 239L1356 238M1395 238L1396 239L1395 238M1476 238L1477 239L1476 238M1536 238L1537 239L1536 238M1598 238L1599 239L1598 238M1730 238L1731 239L1730 238M687 239L688 240L687 239M1327 239L1328 240L1327 239M1597 239L1598 240L1597 239M1695 239L1696 240L1695 239M1719 239L1720 240L1719 239M1731 239L1732 240L1731 239M524 240L525 241L524 240M546 240L547 241L546 240M570 240L571 241L570 240M1003 240L1004 241L1003 240M1025 240L1026 241L1025 240M1352 240L1353 241L1352 240M1416 240L1417 241L1416 240M1454 240L1455 241L1454 240M1477 240L1478 241L1477 240M1497 240L1498 241L1497 240M1515 240L1516 241L1515 240M1535 240L1536 241L1535 240M1732 240L1733 241L1732 240M278 241L279 242L278 241M549 241L550 242L549 241M591 241L592 242L591 241M1158 241L1159 242L1158 241M1306 241L1307 242L1306 241M1331 241L1332 242L1331 241M1349 241L1350 242L1349 241M1676 241L1677 242L1676 241M1698 241L1699 242L1698 241M1715 241L1716 242L1715 241M1733 241L1734 242L1733 241M553 242L553 243L556 243L553 242M562 242L562 243L565 243L562 242M672.667 242.333L673.333 242.667L672.667 242.333M680 242L681 243L680 242M1048 242L1049 243L1048 242M1069 242L1070 243L1069 242M1140.33 242.667L1140.67 243.333L1140.33 242.667M1161.67 242.333L1162.33 242.667L1161.67 242.333M1166.67 242.333L1167.33 242.667L1166.67 242.333M1169 242L1170 243L1169 242M1307 242L1308 243L1307 242M1336 242L1336 243L1345 243L1336 242M1375 242L1376 243L1375 242M1420 242L1421 243L1420 242M1430 242L1431 243L1430 242M1453 242L1454 243L1453 242M1501 242L1502 243L1501 242M1511 242L1512 243L1511 242M1582.67 242.333L1583.33 242.667L1582.67 242.333M1590 242L1591 243L1590 242M1701 242L1702 243L1701 242M1712 242L1713 243L1712 242M649 243L650 244L649 243M1024 243L1025 244L1024 243M1479 243L1480 244L1479 243M1533 243L1534 244L1533 243M1559 243L1560 244L1559 243M589 244L590 245L589 244M1004 244L1005 245L1004 244M1399 244L1400 245L1399 244M1678 244L1679 245L1678 244M588 245L589 246L588 245M1049 245L1050 246L1049 245M1679 245L1680 246L1679 245M587 246L588 247L587 246M1023 246L1024 247L1023 246M1068 246L1069 247L1068 246M1141 246L1142 247L1141 246M1311 246L1312 247L1311 246M1371 246L1372 247L1371 246M1680 246L1681 247L1680 246M586 247L587 248L586 247M652 247L653 248L652 247M1005 247L1006 248L1005 247M1312 247L1313 248L1312 247M1370 247L1371 248L1370 247M1562 247L1563 248L1562 247M1681 247L1682 248L1681 247M532 248L533 249L532 248M585 248L586 249L585 248M653 248L654 249L653 248M1050 248L1051 249L1050 248M1142 248L1143 249L1142 248M1563 248L1564 249L1563 248M1682 248L1683 249L1682 248M274 249L275 250L274 249M654 249L655 250L654 249M690 249L691 250L690 249M1067 249L1068 250L1067 249M1315 249L1316 250L1315 249M1367 249L1368 250L1367 249M1404 249L1405 250L1404 249M1485 249L1486 250L1485 249M1527 249L1528 250L1527 249M1564 249L1565 250L1564 249M1600 249L1601 250L1600 249M535 250L536 251L535 250M655 250L656 251L655 250M689 250L690 251L689 250M1445 250L1446 251L1445 250M1486 250L1487 251L1486 250M1526 250L1527 251L1526 250M1565 250L1566 251L1565 250M1599 250L1600 251L1599 250M1685 250L1686 251L1685 250M1726 250L1727 251L1726 250M537 251L538 252L537 251M688 251L689 252L688 251M1006 251L1007 252L1006 251M1051 251L1052 252L1051 251M1318 251L1319 252L1318 251M1407 251L1408 252L1407 251M1598 251L1599 252L1598 251M539 252L540 253L539 252M658 252L659 253L658 252M1320 252L1321 253L1320 252M1361 252L1362 253L1361 252M1568 252L1569 253L1568 252M576 253L577 254L576 253M660 253L661 254L660 253M1021 253L1022 254L1021 253M1066 253L1067 254L1066 253M1147 253L1148 254L1147 253M1358 253L1359 254L1358 253M1411 253L1412 254L1411 253M1570 253L1571 254L1570 253M545 254L546 255L545 254M573 254L574 255L573 254M662 254L663 255L662 254M1052 254L1053 255L1052 254M1149 254L1150 255L1149 254M1169 254L1170 255L1169 254M1326 254L1327 255L1326 254M1354.67 254.333L1355.33 254.667L1354.67 254.333M1413 254L1414 255L1413 254M1437 254L1438 255L1437 254M1494 254L1495 255L1494 254M1518 254L1519 255L1518 254M1572 254L1573 255L1572 254M1693 254L1694 255L1693 254M1718 254L1719 255L1718 254M549 255L550 256L549 255M568.667 255.333L569.333 255.667L568.667 255.333M665 255L666 256L665 255M679 255L680 256L679 255M1152 255L1153 256L1152 255M1166 255L1167 256L1166 255M1329.67 255.333L1330.33 255.667L1329.67 255.333M1349.67 255.333L1350.33 255.667L1349.67 255.333M1417 255L1418 256L1417 255M1433.67 255.333L1434.33 255.667L1433.67 255.333M1498 255L1499 256L1498 255M1514 255L1515 256L1514 255M1575 255L1576 256L1575 255M1589 255L1590 256L1589 255M1697 255L1698 256L1697 255M1713.67 255.333L1714.33 255.667L1713.67 255.333M691.333 256.667L691.667 257.333L691.333 256.667M1601.33 256.667L1601.67 257.333L1601.33 256.667M268 258L269 259L268 258M707 260L708 261L707 260M1617 260L1618 261L1617 260M690 261L691 262L690 261M1600 261L1601 262L1600 261M654.667 262.333L655.333 262.667L654.667 262.333M1564.67 262.333L1565.33 262.667L1564.67 262.333M656 263L657 264L656 263M689 263L690 264L689 263M1566 263L1567 264L1566 263M1599 263L1600 264L1599 263M657 264L658 265L657 264M706 264L707 265L706 264M1567 264L1568 265L1567 264M1616 264L1617 265L1616 264M658 265L659 266L658 265M1568 265L1569 266L1568 265M651 266L652 267L651 266M1561 266L1562 267L1561 266M650 267L651 268L650 267M1560 267L1561 268L1560 267M684 268L685 269L684 268M1594 268L1595 269L1594 268M682 269L683 270L682 269M1592 269L1593 270L1592 269M668 270L669 271L668 270M678.667 270.333L679.333 270.667L678.667 270.333M703 270L704 271L703 270M1578 270L1579 271L1578 270M1588.67 270.333L1589.33 270.667L1588.67 270.333M1613 270L1614 271L1613 270M647.333 271.667L647.667 272.333L647.333 271.667M1557.33 271.667L1557.67 272.333L1557.33 271.667M648 273L649 274L648 273M701 273L702 274L701 273M1558 273L1559 274L1558 273M1611 273L1612 274L1611 273M649 274L650 275L649 274M700 274L701 275L700 274M1559 274L1560 275L1559 274M1610 274L1611 275L1610 274M650 275L651 276L650 275M699 275L700 276L699 275M1560 275L1561 276L1560 275M1609 275L1610 276L1609 275M651 276L652 277L651 276M698 276L699 277L698 276M1561 276L1562 277L1561 276M1608 276L1609 277L1608 276M654 278L655 279L654 278M695 278L696 279L695 278M1564 278L1565 279L1564 278M1605 278L1606 279L1605 278M656 279L657 280L656 279M1566 279L1567 280L1566 279M658 280L659 281L658 280M1568 280L1569 281L1568 280M686.667 282.333L687.333 282.667L686.667 282.333M1596.67 282.333L1597.33 282.667L1596.67 282.333M667.667 283.333L668.333 283.667L667.667 283.333M681.667 283.333L682.333 283.667L681.667 283.333M1577.67 283.333L1578.33 283.667L1577.67 283.333M1591.67 283.333L1592.33 283.667L1591.67 283.333z"/>
<path style="fill:#737373; stroke:none;" d="M0 378L0 400L22 400L22 399C10.2478 395.607 6.27472 387.326 0 378M1849 378C1846.04 388.262 1838.25 396.042 1828 399L1828 400L1850 400L1849 378z"/>
</svg>
