<?xml version="1.0" standalone="no"?>
<!DOCTYPE svg PUBLIC "-//W3C//DTD SVG 20010904//EN"
 "http://www.w3.org/TR/2001/REC-SVG-20010904/DTD/svg10.dtd">
<svg version="1.0" xmlns="http://www.w3.org/2000/svg"
 width="1850.000000pt" height="400.000000pt" viewBox="0 0 1850.000000 400.000000"
 preserveAspectRatio="xMidYMid meet">

<g transform="translate(0.000000,400.000000) scale(0.100000,-0.100000)"
fill="#000000" stroke="none">
<path d="M1883 2890 c-177 -22 -363 -113 -500 -243 -79 -76 -192 -232 -177
-247 22 -22 280 -220 286 -220 4 0 10 11 14 25 10 40 79 141 130 191 183 177
481 197 673 45 l37 -30 128 128 127 128 -53 40 c-197 150 -425 213 -665 183z"/>
<path d="M11830 1975 l0 -525 80 0 80 0 0 268 0 267 26 29 c51 54 143 72 205
40 54 -28 59 -56 59 -344 l0 -260 81 0 81 0 -4 288 c-3 265 -5 291 -24 332
-26 57 -81 106 -136 121 -85 23 -203 -5 -252 -60 -11 -12 -23 -21 -28 -21 -4
0 -8 88 -8 195 l0 195 -80 0 -80 0 0 -525z"/>
<path d="M16380 1975 l0 -525 80 0 80 0 0 525 0 525 -80 0 -80 0 0 -525z"/>
<path d="M6143 2460 c-50 -20 -60 -105 -17 -139 64 -50 144 -13 144 67 0 37
-4 45 -32 62 -35 21 -60 24 -95 10z"/>
<path d="M8474 2460 c-55 -23 -70 -95 -29 -135 53 -54 155 -18 155 54 0 59
-71 105 -126 81z"/>
<path d="M11044 2460 c-55 -23 -70 -95 -29 -135 53 -54 155 -18 155 54 0 59
-71 105 -126 81z"/>
<path d="M5443 2436 c-84 -27 -159 -91 -187 -158 -22 -53 -21 -150 3 -197 44
-86 127 -139 311 -201 119 -40 162 -64 185 -103 23 -39 24 -107 1 -142 -37
-56 -160 -82 -261 -54 -56 16 -113 75 -121 127 l-7 42 -82 0 -82 0 8 -52 c22
-140 159 -241 346 -255 85 -7 179 10 243 42 149 76 187 266 78 390 -51 58
-119 96 -253 140 -172 57 -225 97 -225 170 0 87 66 137 181 137 107 0 171 -42
188 -123 l7 -34 83 -3 84 -3 -7 41 c-15 92 -81 175 -175 219 -48 22 -72 26
-166 28 -72 2 -124 -2 -152 -11z"/>
<path d="M13239 2435 c-109 -35 -198 -129 -239 -255 -27 -81 -37 -263 -21
-370 31 -208 179 -352 373 -367 142 -11 281 27 361 97 l37 32 0 194 0 194
-180 0 -180 0 0 -65 0 -65 100 0 100 0 0 -98 c0 -114 -6 -124 -86 -148 -159
-48 -297 21 -343 171 -26 85 -29 288 -6 380 32 125 105 185 227 185 110 0 185
-54 204 -148 l7 -32 80 0 80 0 -7 43 c-16 99 -78 182 -174 229 -62 31 -75 33
-177 35 -75 2 -125 -2 -156 -12z"/>
<path d="M11400 2280 l0 -90 -60 0 -60 0 0 -60 0 -60 60 0 60 0 0 -231 c0
-134 5 -248 11 -274 24 -96 123 -144 248 -119 30 6 31 7 31 65 l0 59 -45 0
c-32 0 -51 6 -65 20 -19 19 -20 33 -20 250 l0 230 65 0 65 0 0 60 0 60 -65 0
-65 0 0 90 0 90 -80 0 -80 0 0 -90z"/>
<path d="M6637 2186 c-85 -32 -153 -111 -184 -215 -11 -41 -14 -85 -11 -176 4
-113 6 -127 36 -188 57 -116 155 -175 272 -164 60 5 110 26 148 60 l22 20 0
-53 c0 -116 -65 -180 -183 -180 -66 0 -120 19 -160 58 -17 16 -31 23 -35 16
-4 -6 -20 -27 -36 -47 l-29 -38 22 -23 c32 -34 123 -76 191 -88 123 -21 261
25 327 111 60 78 63 103 63 528 l0 383 -70 0 -70 0 -6 -41 -7 -40 -26 24 c-14
14 -42 33 -61 42 -46 24 -154 29 -203 11z m207 -130 c18 -7 42 -26 54 -41 21
-26 22 -39 22 -196 0 -165 0 -168 -25 -198 -32 -37 -83 -55 -146 -49 -66 7
-96 30 -127 96 -23 49 -27 70 -27 152 0 83 4 103 27 151 44 88 132 122 222 85z"/>
<path d="M7563 2190 c-37 -9 -76 -32 -115 -68 l-28 -26 0 47 0 47 -75 0 -75 0
0 -370 0 -370 75 0 74 0 3 269 3 270 29 30 c58 60 173 69 224 17 l27 -26 3
-280 3 -280 79 0 80 0 0 273 c0 222 -3 284 -16 328 -35 116 -152 172 -291 139z"/>
<path d="M9085 2191 c-44 -11 -87 -35 -115 -66 l-25 -27 -5 44 -5 43 -72 3
-73 3 0 -371 0 -370 75 0 75 0 0 264 0 264 27 33 c33 38 79 59 132 59 57 0 88
-15 111 -52 19 -31 20 -51 20 -300 l0 -268 81 0 80 0 -3 293 c-3 273 -4 295
-24 338 -44 94 -158 139 -279 110z"/>
<path d="M14160 2187 c-94 -26 -163 -88 -209 -187 -24 -50 -26 -66 -26 -180 0
-117 2 -129 29 -187 70 -152 237 -226 401 -178 106 30 173 94 217 206 31 79
30 240 -2 324 -30 76 -103 155 -173 185 -63 28 -173 35 -237 17z m175 -133
c72 -34 112 -143 101 -273 -10 -122 -56 -192 -139 -210 -90 -21 -172 29 -203
122 -32 98 -15 266 34 320 49 56 138 74 207 41z"/>
<path d="M14977 2190 c-95 -24 -168 -87 -214 -185 -26 -56 -28 -69 -28 -190 0
-152 13 -192 90 -274 67 -71 128 -96 240 -96 102 0 164 22 224 78 85 82 114
166 110 320 -4 98 -8 119 -32 168 -32 67 -100 132 -165 162 -53 23 -165 32
-225 17z m198 -160 c51 -50 70 -108 70 -216 -1 -82 -4 -98 -30 -149 -36 -71
-82 -99 -157 -97 -69 1 -111 30 -145 100 -25 51 -28 67 -27 152 2 175 63 255
191 248 56 -4 67 -8 98 -38z"/>
<path d="M15737 2186 c-85 -32 -153 -111 -184 -215 -11 -41 -14 -85 -11 -176
4 -113 6 -127 36 -188 57 -116 155 -175 272 -164 60 5 110 26 148 60 l22 20 0
-53 c0 -116 -65 -180 -183 -180 -66 0 -120 19 -160 58 -17 16 -31 23 -35 16
-4 -6 -20 -27 -36 -47 l-29 -38 22 -23 c32 -34 123 -76 191 -88 123 -21 261
25 327 111 60 78 63 103 63 528 l0 383 -70 0 -70 0 -6 -41 -7 -40 -26 24 c-14
14 -42 33 -61 42 -46 24 -154 29 -203 11z m207 -130 c18 -7 42 -26 54 -41 21
-26 22 -39 22 -196 0 -165 0 -168 -25 -198 -32 -37 -83 -55 -146 -49 -66 7
-96 30 -127 96 -23 49 -27 70 -27 152 0 83 4 103 27 151 44 88 132 122 222 85z"/>
<path d="M16949 2187 c-60 -17 -133 -71 -169 -125 -50 -76 -65 -135 -65 -257
0 -105 2 -114 33 -177 37 -76 82 -120 162 -157 47 -22 68 -26 150 -26 81 0
103 4 151 26 31 15 73 43 93 64 l38 38 -40 40 -40 40 -34 -28 c-48 -40 -94
-57 -159 -57 -89 0 -154 46 -184 131 -26 76 -42 71 225 71 l240 0 0 79 c0 208
-105 337 -284 347 -41 2 -90 -2 -117 -9z m171 -132 c36 -18 68 -77 72 -131 l3
-39 -154 -3 c-85 -1 -158 1 -162 5 -4 5 -1 30 6 56 12 49 54 102 90 117 33 14
114 11 145 -5z"/>
<path d="M6110 1820 l0 -370 75 0 75 0 0 370 0 370 -75 0 -75 0 0 -370z"/>
<path d="M8430 1820 l0 -370 80 0 80 0 0 370 0 370 -80 0 -80 0 0 -370z"/>
<path d="M9881 2178 c0 -7 44 -173 98 -368 l98 -355 64 -3 65 -3 79 256 c43
140 80 253 83 251 2 -3 39 -116 82 -253 l77 -248 67 -3 c36 -2 66 -1 66 2 0 5
185 684 195 716 6 19 2 20 -72 20 l-78 0 -34 -148 c-73 -325 -84 -364 -91
-351 -4 8 -41 123 -81 257 l-73 242 -58 0 -57 0 -35 -112 c-19 -62 -51 -169
-72 -238 -20 -69 -40 -132 -45 -140 -10 -20 -8 -27 -69 235 -28 121 -54 228
-56 238 -5 14 -17 17 -80 17 -53 0 -74 -4 -73 -12z"/>
<path d="M11000 1820 l0 -370 80 0 80 0 0 370 0 370 -80 0 -80 0 0 -370z"/>
<path d="M2000 1990 l0 -170 246 0 246 0 -6 -27 c-16 -65 -66 -152 -116 -202
-29 -29 -49 -56 -43 -59 5 -4 67 -52 138 -106 l129 -100 57 63 c140 152 218
395 206 639 -4 62 -9 117 -12 122 -4 6 -168 10 -426 10 l-419 0 0 -170z"/>
</g>
</svg>
